<?xml version="1.0" encoding="utf-8"?>
<!-- Generator: Adobe Illustrator 23.0.3, SVG Export Plug-In . SVG Version: 6.00 Build 0)  -->
<svg version="1.1" id="Layer_1" xmlns="http://www.w3.org/2000/svg" xmlns:xlink="http://www.w3.org/1999/xlink" x="0px" y="0px"
	 viewBox="0 0 100 100" style="enable-background:new 0 0 100 100;" xml:space="preserve">
<style type="text/css">
	.st0{fill:#F7385C;}
</style>
<path class="st0" d="M49.7,2.9c0,0-21.2,18.7-42.5,18.7c0,18.3,0.1,36.2,7.9,50.1C23.2,86,38.9,96,49.7,98.3
	c10.7-2.6,25.8-12.7,33.7-26.6s8.8-31.6,8.8-50C70.9,21.7,49.7,2.9,49.7,2.9z M66.4,61.3c1.7,1.7,1.7,4.3,0,6
	c-0.8,0.7-1.9,1.2-3,1.2c-1.1,0-2.1-0.4-3-1.3L49.7,56.5L38.9,67.2c-0.8,0.8-1.9,1.3-3,1.3s-2.1-0.4-3-1.3c-1.7-1.7-1.7-4.3,0-6
	l10.7-10.7L32.9,39.7c-1.7-1.7-1.7-4.3,0-6c1.7-1.7,4.3-1.7,6,0l10.7,10.8l10.8-10.8c1.7-1.7,4.3-1.7,6,0c1.7,1.7,1.7,4.3,0,6
	L55.7,50.5L66.4,61.3z"/>
</svg>
